<mxfile host="65bd71144e">
    <diagram name="Page-1" id="-H_mtQnk-PTXWXPvYvuk">
        <mxGraphModel dx="4104" dy="953" grid="1" gridSize="10" guides="1" tooltips="1" connect="1" arrows="1" fold="1" page="1" pageScale="1" pageWidth="1169" pageHeight="827" math="0" shadow="0">
            <root>
                <mxCell id="0"/>
                <mxCell id="1" parent="0"/>
                <mxCell id="141" value="Схема 5" style="rounded=0;whiteSpace=wrap;html=1;align=left;verticalAlign=top;spacingLeft=10;" vertex="1" parent="1">
                    <mxGeometry x="-230" y="2380" width="1230" height="790" as="geometry"/>
                </mxCell>
                <mxCell id="189" value="Company infrastructure" style="rounded=0;whiteSpace=wrap;html=1;dashed=1;align=left;verticalAlign=top;spacingLeft=10;" vertex="1" parent="1">
                    <mxGeometry x="-120" y="2390" width="1100" height="580" as="geometry"/>
                </mxCell>
                <mxCell id="86" value="Схема 3" style="rounded=0;whiteSpace=wrap;html=1;align=left;verticalAlign=top;spacingLeft=10;" vertex="1" parent="1">
                    <mxGeometry x="190" y="1140" width="810" height="600" as="geometry"/>
                </mxCell>
                <mxCell id="85" value="Схема 2" style="rounded=0;whiteSpace=wrap;html=1;align=left;verticalAlign=top;spacingLeft=10;" vertex="1" parent="1">
                    <mxGeometry x="190" y="640" width="810" height="480" as="geometry"/>
                </mxCell>
                <mxCell id="84" value="Схема 1" style="rounded=0;whiteSpace=wrap;html=1;align=left;verticalAlign=top;spacingLeft=10;" vertex="1" parent="1">
                    <mxGeometry x="190" y="130" width="810" height="480" as="geometry"/>
                </mxCell>
                <mxCell id="44" style="edgeStyle=orthogonalEdgeStyle;html=1;fillColor=#e1d5e7;strokeColor=#9673a6;" edge="1" parent="1" source="4" target="41">
                    <mxGeometry relative="1" as="geometry">
                        <Array as="points">
                            <mxPoint x="715" y="360"/>
                            <mxPoint x="800" y="360"/>
                            <mxPoint x="800" y="590"/>
                            <mxPoint x="510" y="590"/>
                        </Array>
                    </mxGeometry>
                </mxCell>
                <mxCell id="4" value="shard1" style="rounded=1;whiteSpace=wrap;html=1;align=left;verticalAlign=top;spacingLeft=20;" parent="1" vertex="1">
                    <mxGeometry x="650" y="150" width="140" height="190" as="geometry"/>
                </mxCell>
                <mxCell id="zA23MoTUsTF4_91t8viU-2" value="MongoDB&lt;div&gt;&lt;span style=&quot;color: rgb(0, 0, 0); text-align: left;&quot;&gt;(mongodb_shard1)&lt;/span&gt;&lt;/div&gt;" style="shape=cylinder3;whiteSpace=wrap;html=1;boundedLbl=1;backgroundOutline=1;size=15;" parent="1" vertex="1">
                    <mxGeometry x="662.5" y="195" width="117.5" height="80" as="geometry"/>
                </mxCell>
                <mxCell id="10" style="edgeStyle=orthogonalEdgeStyle;html=1;" parent="1" source="40" target="5" edge="1">
                    <mxGeometry relative="1" as="geometry">
                        <Array as="points">
                            <mxPoint x="610" y="260"/>
                            <mxPoint x="610" y="460"/>
                        </Array>
                    </mxGeometry>
                </mxCell>
                <mxCell id="42" style="edgeStyle=none;html=1;" edge="1" parent="1" source="zA23MoTUsTF4_91t8viU-3" target="40">
                    <mxGeometry relative="1" as="geometry"/>
                </mxCell>
                <mxCell id="zA23MoTUsTF4_91t8viU-3" value="pymongo-api" style="rounded=1;whiteSpace=wrap;html=1;" parent="1" vertex="1">
                    <mxGeometry x="280" y="215" width="120" height="60" as="geometry"/>
                </mxCell>
                <mxCell id="zA23MoTUsTF4_91t8viU-4" style="edgeStyle=orthogonalEdgeStyle;rounded=1;orthogonalLoop=1;jettySize=auto;html=1;curved=0;" parent="1" source="40" target="4" edge="1">
                    <mxGeometry relative="1" as="geometry">
                        <Array as="points">
                            <mxPoint x="610" y="240"/>
                            <mxPoint x="610" y="240"/>
                        </Array>
                    </mxGeometry>
                </mxCell>
                <mxCell id="43" style="edgeStyle=orthogonalEdgeStyle;html=1;fillColor=#e1d5e7;strokeColor=#9673a6;" edge="1" parent="1" source="5" target="41">
                    <mxGeometry relative="1" as="geometry">
                        <Array as="points">
                            <mxPoint x="510" y="520"/>
                        </Array>
                    </mxGeometry>
                </mxCell>
                <mxCell id="125" value="&lt;span style=&quot;color: rgb(0, 0, 0);&quot;&gt;Отправка метаданных&lt;/span&gt;" style="edgeLabel;html=1;align=center;verticalAlign=middle;resizable=0;points=[];" vertex="1" connectable="0" parent="43">
                    <mxGeometry x="0.5484" relative="1" as="geometry">
                        <mxPoint as="offset"/>
                    </mxGeometry>
                </mxCell>
                <mxCell id="5" value="shard2" style="rounded=1;whiteSpace=wrap;html=1;align=left;verticalAlign=top;spacingLeft=20;" parent="1" vertex="1">
                    <mxGeometry x="650" y="380" width="140" height="190" as="geometry"/>
                </mxCell>
                <mxCell id="6" value="MongoDB&lt;div&gt;&lt;span style=&quot;color: rgb(0, 0, 0); text-align: left;&quot;&gt;(mongodb_shard2)&lt;/span&gt;&lt;/div&gt;" style="shape=cylinder3;whiteSpace=wrap;html=1;boundedLbl=1;backgroundOutline=1;size=15;" parent="1" vertex="1">
                    <mxGeometry x="662.5" y="435" width="117.5" height="80" as="geometry"/>
                </mxCell>
                <mxCell id="45" style="edgeStyle=none;html=1;fillColor=#e1d5e7;strokeColor=#9673a6;" edge="1" parent="1" source="40" target="41">
                    <mxGeometry relative="1" as="geometry"/>
                </mxCell>
                <mxCell id="132" value="&lt;span style=&quot;color: rgb(0, 0, 0);&quot;&gt;Получение данных&lt;/span&gt;&lt;div&gt;о кластере&lt;/div&gt;" style="edgeLabel;html=1;align=center;verticalAlign=middle;resizable=0;points=[];" vertex="1" connectable="0" parent="45">
                    <mxGeometry x="-0.16" relative="1" as="geometry">
                        <mxPoint as="offset"/>
                    </mxGeometry>
                </mxCell>
                <mxCell id="40" value="mongos_router" style="rounded=1;whiteSpace=wrap;html=1;" parent="1" vertex="1">
                    <mxGeometry x="450" y="215" width="120" height="60" as="geometry"/>
                </mxCell>
                <mxCell id="41" value="mongo_configsrv" style="rounded=1;whiteSpace=wrap;html=1;" vertex="1" parent="1">
                    <mxGeometry x="450" y="350" width="120" height="60" as="geometry"/>
                </mxCell>
                <mxCell id="46" style="edgeStyle=orthogonalEdgeStyle;html=1;fillColor=#e1d5e7;strokeColor=#9673a6;" edge="1" parent="1" source="47" target="58">
                    <mxGeometry relative="1" as="geometry">
                        <Array as="points">
                            <mxPoint x="715" y="865"/>
                            <mxPoint x="960" y="865"/>
                            <mxPoint x="960" y="1095"/>
                            <mxPoint x="510" y="1095"/>
                        </Array>
                    </mxGeometry>
                </mxCell>
                <mxCell id="47" value="shard1" style="rounded=1;whiteSpace=wrap;html=1;align=left;verticalAlign=top;spacingLeft=20;" vertex="1" parent="1">
                    <mxGeometry x="650" y="654.94" width="290" height="190" as="geometry"/>
                </mxCell>
                <mxCell id="48" value="MongoDB&lt;div&gt;&lt;span style=&quot;color: rgb(0, 0, 0); text-align: left;&quot;&gt;(mongodb_shard1_1)&lt;/span&gt;&lt;/div&gt;" style="shape=cylinder3;whiteSpace=wrap;html=1;boundedLbl=1;backgroundOutline=1;size=15;" vertex="1" parent="1">
                    <mxGeometry x="662.5" y="699.94" width="117.5" height="80" as="geometry"/>
                </mxCell>
                <mxCell id="49" style="edgeStyle=orthogonalEdgeStyle;html=1;" edge="1" parent="1" source="57" target="54">
                    <mxGeometry relative="1" as="geometry">
                        <Array as="points">
                            <mxPoint x="610" y="764.94"/>
                            <mxPoint x="610" y="964.94"/>
                        </Array>
                    </mxGeometry>
                </mxCell>
                <mxCell id="50" style="edgeStyle=none;html=1;" edge="1" parent="1" source="51" target="57">
                    <mxGeometry relative="1" as="geometry"/>
                </mxCell>
                <mxCell id="51" value="pymongo-api" style="rounded=1;whiteSpace=wrap;html=1;" vertex="1" parent="1">
                    <mxGeometry x="280" y="719.94" width="120" height="60" as="geometry"/>
                </mxCell>
                <mxCell id="52" style="edgeStyle=orthogonalEdgeStyle;rounded=1;orthogonalLoop=1;jettySize=auto;html=1;curved=0;" edge="1" parent="1" source="57" target="47">
                    <mxGeometry relative="1" as="geometry">
                        <Array as="points">
                            <mxPoint x="610" y="744.94"/>
                            <mxPoint x="610" y="744.94"/>
                        </Array>
                    </mxGeometry>
                </mxCell>
                <mxCell id="53" style="edgeStyle=orthogonalEdgeStyle;html=1;fillColor=#e1d5e7;strokeColor=#9673a6;" edge="1" parent="1" source="54" target="58">
                    <mxGeometry relative="1" as="geometry">
                        <Array as="points">
                            <mxPoint x="510" y="1030"/>
                        </Array>
                    </mxGeometry>
                </mxCell>
                <mxCell id="124" value="&lt;span style=&quot;color: rgb(0, 0, 0);&quot;&gt;Отправка метаданных&lt;/span&gt;" style="edgeLabel;html=1;align=center;verticalAlign=middle;resizable=0;points=[];" vertex="1" connectable="0" parent="53">
                    <mxGeometry x="0.5352" y="-2" relative="1" as="geometry">
                        <mxPoint as="offset"/>
                    </mxGeometry>
                </mxCell>
                <mxCell id="54" value="shard2" style="rounded=1;whiteSpace=wrap;html=1;align=left;verticalAlign=top;spacingLeft=20;" vertex="1" parent="1">
                    <mxGeometry x="650" y="884.94" width="290" height="190" as="geometry"/>
                </mxCell>
                <mxCell id="55" value="MongoDB&lt;div&gt;&lt;span style=&quot;color: rgb(0, 0, 0); text-align: left;&quot;&gt;(mongodb_shard2-1)&lt;/span&gt;&lt;/div&gt;" style="shape=cylinder3;whiteSpace=wrap;html=1;boundedLbl=1;backgroundOutline=1;size=15;" vertex="1" parent="1">
                    <mxGeometry x="662.5" y="939.94" width="117.5" height="80" as="geometry"/>
                </mxCell>
                <mxCell id="56" value="&lt;span style=&quot;color: rgb(0, 0, 0);&quot;&gt;Получение данных&lt;/span&gt;&lt;div&gt;о кластере&lt;/div&gt;" style="edgeStyle=none;html=1;fillColor=#e1d5e7;strokeColor=#9673a6;" edge="1" parent="1" source="57" target="58">
                    <mxGeometry relative="1" as="geometry"/>
                </mxCell>
                <mxCell id="57" value="mongos_router" style="rounded=1;whiteSpace=wrap;html=1;" vertex="1" parent="1">
                    <mxGeometry x="450" y="719.94" width="120" height="60" as="geometry"/>
                </mxCell>
                <mxCell id="58" value="mongo_configsrv" style="rounded=1;whiteSpace=wrap;html=1;" vertex="1" parent="1">
                    <mxGeometry x="450" y="854.94" width="120" height="60" as="geometry"/>
                </mxCell>
                <mxCell id="59" value="MongoDB&lt;div&gt;&lt;span style=&quot;color: rgb(0, 0, 0); text-align: left;&quot;&gt;(mongodb_shard1_2)&lt;/span&gt;&lt;/div&gt;" style="shape=cylinder3;whiteSpace=wrap;html=1;boundedLbl=1;backgroundOutline=1;size=15;" vertex="1" parent="1">
                    <mxGeometry x="800" y="665" width="120" height="80" as="geometry"/>
                </mxCell>
                <mxCell id="60" value="MongoDB&lt;div&gt;&lt;span style=&quot;color: rgb(0, 0, 0); text-align: left;&quot;&gt;(mongodb_shard1_3)&lt;/span&gt;&lt;/div&gt;" style="shape=cylinder3;whiteSpace=wrap;html=1;boundedLbl=1;backgroundOutline=1;size=15;" vertex="1" parent="1">
                    <mxGeometry x="800" y="755" width="120" height="80" as="geometry"/>
                </mxCell>
                <mxCell id="61" value="MongoDB&lt;div&gt;&lt;span style=&quot;color: rgb(0, 0, 0); text-align: left;&quot;&gt;(mongodb_shard2_2)&lt;/span&gt;&lt;/div&gt;" style="shape=cylinder3;whiteSpace=wrap;html=1;boundedLbl=1;backgroundOutline=1;size=15;" vertex="1" parent="1">
                    <mxGeometry x="800" y="895" width="117.5" height="80" as="geometry"/>
                </mxCell>
                <mxCell id="62" value="MongoDB&lt;div&gt;&lt;span style=&quot;color: rgb(0, 0, 0); text-align: left;&quot;&gt;(mongodb_shard2_3)&lt;/span&gt;&lt;/div&gt;" style="shape=cylinder3;whiteSpace=wrap;html=1;boundedLbl=1;backgroundOutline=1;size=15;" vertex="1" parent="1">
                    <mxGeometry x="800" y="990" width="117.5" height="80" as="geometry"/>
                </mxCell>
                <mxCell id="64" style="edgeStyle=orthogonalEdgeStyle;html=1;fillColor=#e1d5e7;strokeColor=#9673a6;" edge="1" parent="1" source="65" target="76">
                    <mxGeometry relative="1" as="geometry">
                        <Array as="points">
                            <mxPoint x="715" y="1370"/>
                            <mxPoint x="960" y="1370"/>
                            <mxPoint x="960" y="1600"/>
                            <mxPoint x="510" y="1600"/>
                        </Array>
                    </mxGeometry>
                </mxCell>
                <mxCell id="65" value="shard1" style="rounded=1;whiteSpace=wrap;html=1;align=left;verticalAlign=top;spacingLeft=20;" vertex="1" parent="1">
                    <mxGeometry x="650" y="1160" width="290" height="190" as="geometry"/>
                </mxCell>
                <mxCell id="66" value="MongoDB&lt;div&gt;&lt;span style=&quot;color: rgb(0, 0, 0); text-align: left;&quot;&gt;(mongodb_shard1_1)&lt;/span&gt;&lt;/div&gt;" style="shape=cylinder3;whiteSpace=wrap;html=1;boundedLbl=1;backgroundOutline=1;size=15;" vertex="1" parent="1">
                    <mxGeometry x="662.5" y="1205" width="117.5" height="80" as="geometry"/>
                </mxCell>
                <mxCell id="67" style="edgeStyle=orthogonalEdgeStyle;html=1;" edge="1" parent="1" source="75" target="72">
                    <mxGeometry relative="1" as="geometry">
                        <Array as="points">
                            <mxPoint x="610" y="1270"/>
                            <mxPoint x="610" y="1470"/>
                        </Array>
                    </mxGeometry>
                </mxCell>
                <mxCell id="68" style="edgeStyle=none;html=1;" edge="1" parent="1" source="69" target="75">
                    <mxGeometry relative="1" as="geometry"/>
                </mxCell>
                <mxCell id="83" style="edgeStyle=orthogonalEdgeStyle;html=1;fillColor=#dae8fc;strokeColor=#6c8ebf;" edge="1" parent="1" source="69" target="82">
                    <mxGeometry relative="1" as="geometry">
                        <Array as="points">
                            <mxPoint x="430" y="1270"/>
                            <mxPoint x="430" y="1680"/>
                        </Array>
                    </mxGeometry>
                </mxCell>
                <mxCell id="120" value="&lt;span style=&quot;color: rgb(0, 0, 0);&quot;&gt;Получение данных&lt;/span&gt;&lt;div&gt;из кэша&lt;/div&gt;" style="edgeLabel;html=1;align=center;verticalAlign=middle;resizable=0;points=[];" vertex="1" connectable="0" parent="83">
                    <mxGeometry x="-0.0449" y="-3" relative="1" as="geometry">
                        <mxPoint x="3" y="57" as="offset"/>
                    </mxGeometry>
                </mxCell>
                <mxCell id="69" value="pymongo-api" style="rounded=1;whiteSpace=wrap;html=1;" vertex="1" parent="1">
                    <mxGeometry x="280" y="1225" width="120" height="60" as="geometry"/>
                </mxCell>
                <mxCell id="70" style="edgeStyle=orthogonalEdgeStyle;rounded=1;orthogonalLoop=1;jettySize=auto;html=1;curved=0;" edge="1" parent="1" source="75" target="65">
                    <mxGeometry relative="1" as="geometry">
                        <Array as="points">
                            <mxPoint x="610" y="1250"/>
                            <mxPoint x="610" y="1250"/>
                        </Array>
                    </mxGeometry>
                </mxCell>
                <mxCell id="71" style="edgeStyle=orthogonalEdgeStyle;html=1;fillColor=#e1d5e7;strokeColor=#9673a6;" edge="1" parent="1" source="72" target="76">
                    <mxGeometry relative="1" as="geometry">
                        <Array as="points">
                            <mxPoint x="510" y="1530"/>
                        </Array>
                    </mxGeometry>
                </mxCell>
                <mxCell id="123" value="&lt;span style=&quot;color: rgb(0, 0, 0);&quot;&gt;Отправка метаданных&lt;/span&gt;" style="edgeLabel;html=1;align=center;verticalAlign=middle;resizable=0;points=[];" vertex="1" connectable="0" parent="71">
                    <mxGeometry x="0.5129" y="2" relative="1" as="geometry">
                        <mxPoint as="offset"/>
                    </mxGeometry>
                </mxCell>
                <mxCell id="72" value="shard2" style="rounded=1;whiteSpace=wrap;html=1;align=left;verticalAlign=top;spacingLeft=20;" vertex="1" parent="1">
                    <mxGeometry x="650" y="1390" width="290" height="190" as="geometry"/>
                </mxCell>
                <mxCell id="73" value="MongoDB&lt;div&gt;&lt;span style=&quot;color: rgb(0, 0, 0); text-align: left;&quot;&gt;(mongodb_shard2-1)&lt;/span&gt;&lt;/div&gt;" style="shape=cylinder3;whiteSpace=wrap;html=1;boundedLbl=1;backgroundOutline=1;size=15;" vertex="1" parent="1">
                    <mxGeometry x="662.5" y="1445" width="117.5" height="80" as="geometry"/>
                </mxCell>
                <mxCell id="74" style="edgeStyle=none;html=1;fillColor=#e1d5e7;strokeColor=#9673a6;" edge="1" parent="1" source="75" target="76">
                    <mxGeometry relative="1" as="geometry"/>
                </mxCell>
                <mxCell id="129" value="Получение данных&lt;div&gt;о кластере&lt;/div&gt;" style="edgeLabel;html=1;align=center;verticalAlign=middle;resizable=0;points=[];" vertex="1" connectable="0" parent="74">
                    <mxGeometry x="-0.1267" y="3" relative="1" as="geometry">
                        <mxPoint as="offset"/>
                    </mxGeometry>
                </mxCell>
                <mxCell id="75" value="mongos_router" style="rounded=1;whiteSpace=wrap;html=1;" vertex="1" parent="1">
                    <mxGeometry x="450" y="1225" width="120" height="60" as="geometry"/>
                </mxCell>
                <mxCell id="76" value="mongo_configsrv" style="rounded=1;whiteSpace=wrap;html=1;" vertex="1" parent="1">
                    <mxGeometry x="450" y="1360" width="120" height="60" as="geometry"/>
                </mxCell>
                <mxCell id="77" value="MongoDB&lt;div&gt;&lt;span style=&quot;color: rgb(0, 0, 0); text-align: left;&quot;&gt;(mongodb_shard1_2)&lt;/span&gt;&lt;/div&gt;" style="shape=cylinder3;whiteSpace=wrap;html=1;boundedLbl=1;backgroundOutline=1;size=15;" vertex="1" parent="1">
                    <mxGeometry x="800" y="1170.06" width="120" height="80" as="geometry"/>
                </mxCell>
                <mxCell id="78" value="MongoDB&lt;div&gt;&lt;span style=&quot;color: rgb(0, 0, 0); text-align: left;&quot;&gt;(mongodb_shard1_3)&lt;/span&gt;&lt;/div&gt;" style="shape=cylinder3;whiteSpace=wrap;html=1;boundedLbl=1;backgroundOutline=1;size=15;" vertex="1" parent="1">
                    <mxGeometry x="800" y="1260.06" width="120" height="80" as="geometry"/>
                </mxCell>
                <mxCell id="79" value="MongoDB&lt;div&gt;&lt;span style=&quot;color: rgb(0, 0, 0); text-align: left;&quot;&gt;(mongodb_shard2_2)&lt;/span&gt;&lt;/div&gt;" style="shape=cylinder3;whiteSpace=wrap;html=1;boundedLbl=1;backgroundOutline=1;size=15;" vertex="1" parent="1">
                    <mxGeometry x="800" y="1400.06" width="117.5" height="80" as="geometry"/>
                </mxCell>
                <mxCell id="80" value="MongoDB&lt;div&gt;&lt;span style=&quot;color: rgb(0, 0, 0); text-align: left;&quot;&gt;(mongodb_shard2_3)&lt;/span&gt;&lt;/div&gt;" style="shape=cylinder3;whiteSpace=wrap;html=1;boundedLbl=1;backgroundOutline=1;size=15;" vertex="1" parent="1">
                    <mxGeometry x="800" y="1495.06" width="117.5" height="80" as="geometry"/>
                </mxCell>
                <mxCell id="82" value="Redis&lt;div&gt;&lt;span style=&quot;color: rgb(0, 0, 0); text-align: left;&quot;&gt;(redis_cache)&lt;/span&gt;&lt;/div&gt;" style="shape=cylinder3;whiteSpace=wrap;html=1;boundedLbl=1;backgroundOutline=1;size=15;" vertex="1" parent="1">
                    <mxGeometry x="520" y="1640" width="117.5" height="80" as="geometry"/>
                </mxCell>
                <mxCell id="87" value="Схема 4" style="rounded=0;whiteSpace=wrap;html=1;align=left;verticalAlign=top;spacingLeft=10;" vertex="1" parent="1">
                    <mxGeometry x="-30" y="1760" width="1030" height="600" as="geometry"/>
                </mxCell>
                <mxCell id="88" style="edgeStyle=orthogonalEdgeStyle;html=1;fillColor=#e1d5e7;strokeColor=#9673a6;" edge="1" parent="1" source="89" target="101">
                    <mxGeometry relative="1" as="geometry">
                        <Array as="points">
                            <mxPoint x="715" y="1990"/>
                            <mxPoint x="960" y="1990"/>
                            <mxPoint x="960" y="2220"/>
                            <mxPoint x="510" y="2220"/>
                        </Array>
                    </mxGeometry>
                </mxCell>
                <mxCell id="89" value="shard1" style="rounded=1;whiteSpace=wrap;html=1;align=left;verticalAlign=top;spacingLeft=20;" vertex="1" parent="1">
                    <mxGeometry x="650" y="1780" width="290" height="190" as="geometry"/>
                </mxCell>
                <mxCell id="90" value="MongoDB&lt;div&gt;&lt;span style=&quot;color: rgb(0, 0, 0); text-align: left;&quot;&gt;(mongodb_shard1_1)&lt;/span&gt;&lt;/div&gt;" style="shape=cylinder3;whiteSpace=wrap;html=1;boundedLbl=1;backgroundOutline=1;size=15;" vertex="1" parent="1">
                    <mxGeometry x="662.5" y="1825" width="117.5" height="80" as="geometry"/>
                </mxCell>
                <mxCell id="91" style="edgeStyle=orthogonalEdgeStyle;html=1;" edge="1" parent="1" source="100" target="97">
                    <mxGeometry relative="1" as="geometry">
                        <Array as="points">
                            <mxPoint x="610" y="1890"/>
                            <mxPoint x="610" y="2090"/>
                        </Array>
                    </mxGeometry>
                </mxCell>
                <mxCell id="92" style="edgeStyle=none;html=1;" edge="1" parent="1" source="94" target="100">
                    <mxGeometry relative="1" as="geometry"/>
                </mxCell>
                <mxCell id="93" style="edgeStyle=orthogonalEdgeStyle;html=1;fillColor=#dae8fc;strokeColor=#6c8ebf;" edge="1" parent="1" source="94" target="106">
                    <mxGeometry relative="1" as="geometry">
                        <Array as="points">
                            <mxPoint x="340" y="1930"/>
                            <mxPoint x="430" y="1930"/>
                            <mxPoint x="430" y="2300"/>
                        </Array>
                    </mxGeometry>
                </mxCell>
                <mxCell id="117" style="edgeStyle=orthogonalEdgeStyle;html=1;fillColor=#fff2cc;strokeColor=#d6b656;" edge="1" parent="1" source="94" target="110">
                    <mxGeometry relative="1" as="geometry">
                        <Array as="points">
                            <mxPoint x="320" y="1930"/>
                            <mxPoint x="220" y="1930"/>
                            <mxPoint x="220" y="2070"/>
                            <mxPoint x="140" y="2070"/>
                        </Array>
                    </mxGeometry>
                </mxCell>
                <mxCell id="94" value="pymongo-api" style="rounded=1;whiteSpace=wrap;html=1;" vertex="1" parent="1">
                    <mxGeometry x="280" y="1845" width="120" height="60" as="geometry"/>
                </mxCell>
                <mxCell id="95" style="edgeStyle=orthogonalEdgeStyle;rounded=1;orthogonalLoop=1;jettySize=auto;html=1;curved=0;" edge="1" parent="1" source="100" target="89">
                    <mxGeometry relative="1" as="geometry">
                        <Array as="points">
                            <mxPoint x="610" y="1870"/>
                            <mxPoint x="610" y="1870"/>
                        </Array>
                    </mxGeometry>
                </mxCell>
                <mxCell id="96" style="edgeStyle=orthogonalEdgeStyle;html=1;fillColor=#e1d5e7;strokeColor=#9673a6;" edge="1" parent="1" source="97" target="101">
                    <mxGeometry relative="1" as="geometry">
                        <Array as="points">
                            <mxPoint x="510" y="2160"/>
                        </Array>
                    </mxGeometry>
                </mxCell>
                <mxCell id="122" value="Отправка метаданных" style="edgeLabel;html=1;align=center;verticalAlign=middle;resizable=0;points=[];" vertex="1" connectable="0" parent="96">
                    <mxGeometry x="0.5829" y="-3" relative="1" as="geometry">
                        <mxPoint x="-3" y="36" as="offset"/>
                    </mxGeometry>
                </mxCell>
                <mxCell id="97" value="shard2" style="rounded=1;whiteSpace=wrap;html=1;align=left;verticalAlign=top;spacingLeft=20;" vertex="1" parent="1">
                    <mxGeometry x="650" y="2010" width="290" height="190" as="geometry"/>
                </mxCell>
                <mxCell id="98" value="MongoDB&lt;div&gt;&lt;span style=&quot;color: rgb(0, 0, 0); text-align: left;&quot;&gt;(mongodb_shard2-1)&lt;/span&gt;&lt;/div&gt;" style="shape=cylinder3;whiteSpace=wrap;html=1;boundedLbl=1;backgroundOutline=1;size=15;" vertex="1" parent="1">
                    <mxGeometry x="662.5" y="2065" width="117.5" height="80" as="geometry"/>
                </mxCell>
                <mxCell id="99" style="edgeStyle=none;html=1;fillColor=#e1d5e7;strokeColor=#9673a6;" edge="1" parent="1" source="126" target="101">
                    <mxGeometry relative="1" as="geometry"/>
                </mxCell>
                <mxCell id="128" style="edgeStyle=orthogonalEdgeStyle;html=1;fillColor=#e1d5e7;strokeColor=#9673a6;" edge="1" parent="1" source="100" target="101">
                    <mxGeometry relative="1" as="geometry">
                        <Array as="points">
                            <mxPoint x="510" y="1960"/>
                            <mxPoint x="590" y="1960"/>
                            <mxPoint x="590" y="2060"/>
                            <mxPoint x="510" y="2060"/>
                        </Array>
                    </mxGeometry>
                </mxCell>
                <mxCell id="130" value="&lt;span style=&quot;color: rgb(0, 0, 0);&quot;&gt;Получение данных&lt;/span&gt;&lt;div&gt;о кластере&lt;/div&gt;" style="edgeLabel;html=1;align=center;verticalAlign=middle;resizable=0;points=[];" vertex="1" connectable="0" parent="128">
                    <mxGeometry x="0.5949" relative="1" as="geometry">
                        <mxPoint x="-34" y="-120" as="offset"/>
                    </mxGeometry>
                </mxCell>
                <mxCell id="100" value="mongos_router" style="rounded=1;whiteSpace=wrap;html=1;" vertex="1" parent="1">
                    <mxGeometry x="450" y="1845" width="120" height="60" as="geometry"/>
                </mxCell>
                <mxCell id="101" value="mongo_configsrv" style="rounded=1;whiteSpace=wrap;html=1;" vertex="1" parent="1">
                    <mxGeometry x="450" y="2085" width="120" height="60" as="geometry"/>
                </mxCell>
                <mxCell id="102" value="MongoDB&lt;div&gt;&lt;span style=&quot;color: rgb(0, 0, 0); text-align: left;&quot;&gt;(mongodb_shard1_2)&lt;/span&gt;&lt;/div&gt;" style="shape=cylinder3;whiteSpace=wrap;html=1;boundedLbl=1;backgroundOutline=1;size=15;" vertex="1" parent="1">
                    <mxGeometry x="800" y="1790.06" width="120" height="80" as="geometry"/>
                </mxCell>
                <mxCell id="103" value="MongoDB&lt;div&gt;&lt;span style=&quot;color: rgb(0, 0, 0); text-align: left;&quot;&gt;(mongodb_shard1_3)&lt;/span&gt;&lt;/div&gt;" style="shape=cylinder3;whiteSpace=wrap;html=1;boundedLbl=1;backgroundOutline=1;size=15;" vertex="1" parent="1">
                    <mxGeometry x="800" y="1880.06" width="120" height="80" as="geometry"/>
                </mxCell>
                <mxCell id="104" value="MongoDB&lt;div&gt;&lt;span style=&quot;color: rgb(0, 0, 0); text-align: left;&quot;&gt;(mongodb_shard2_2)&lt;/span&gt;&lt;/div&gt;" style="shape=cylinder3;whiteSpace=wrap;html=1;boundedLbl=1;backgroundOutline=1;size=15;" vertex="1" parent="1">
                    <mxGeometry x="800" y="2020.06" width="117.5" height="80" as="geometry"/>
                </mxCell>
                <mxCell id="105" value="MongoDB&lt;div&gt;&lt;span style=&quot;color: rgb(0, 0, 0); text-align: left;&quot;&gt;(mongodb_shard2_3)&lt;/span&gt;&lt;/div&gt;" style="shape=cylinder3;whiteSpace=wrap;html=1;boundedLbl=1;backgroundOutline=1;size=15;" vertex="1" parent="1">
                    <mxGeometry x="800" y="2115.06" width="117.5" height="80" as="geometry"/>
                </mxCell>
                <mxCell id="106" value="Redis&lt;div&gt;&lt;span style=&quot;color: rgb(0, 0, 0); text-align: left;&quot;&gt;(redis_cache)&lt;/span&gt;&lt;/div&gt;" style="shape=cylinder3;whiteSpace=wrap;html=1;boundedLbl=1;backgroundOutline=1;size=15;" vertex="1" parent="1">
                    <mxGeometry x="520" y="2260" width="117.5" height="80" as="geometry"/>
                </mxCell>
                <mxCell id="115" style="edgeStyle=orthogonalEdgeStyle;html=1;fillColor=#dae8fc;strokeColor=#6c8ebf;" edge="1" parent="1" source="107" target="106">
                    <mxGeometry relative="1" as="geometry">
                        <Array as="points">
                            <mxPoint x="340" y="2070"/>
                            <mxPoint x="430" y="2070"/>
                            <mxPoint x="430" y="2300"/>
                        </Array>
                    </mxGeometry>
                </mxCell>
                <mxCell id="119" value="Получение данных&lt;div&gt;из кэша&lt;/div&gt;" style="edgeLabel;html=1;align=center;verticalAlign=middle;resizable=0;points=[];" vertex="1" connectable="0" parent="115">
                    <mxGeometry x="-0.0364" y="-2" relative="1" as="geometry">
                        <mxPoint as="offset"/>
                    </mxGeometry>
                </mxCell>
                <mxCell id="116" style="edgeStyle=orthogonalEdgeStyle;html=1;fillColor=#fff2cc;strokeColor=#d6b656;" edge="1" parent="1" source="107" target="110">
                    <mxGeometry relative="1" as="geometry">
                        <Array as="points">
                            <mxPoint x="320" y="2070"/>
                            <mxPoint x="140" y="2070"/>
                        </Array>
                    </mxGeometry>
                </mxCell>
                <mxCell id="118" value="Регистрация&lt;div&gt;в consul&lt;/div&gt;" style="edgeLabel;html=1;align=center;verticalAlign=middle;resizable=0;points=[];" vertex="1" connectable="0" parent="116">
                    <mxGeometry x="0.3263" relative="1" as="geometry">
                        <mxPoint x="9" y="20" as="offset"/>
                    </mxGeometry>
                </mxCell>
                <mxCell id="131" style="edgeStyle=none;html=1;" edge="1" parent="1" source="107" target="126">
                    <mxGeometry relative="1" as="geometry"/>
                </mxCell>
                <mxCell id="107" value="pymongo-api" style="rounded=1;whiteSpace=wrap;html=1;" vertex="1" parent="1">
                    <mxGeometry x="280" y="1980" width="120" height="60" as="geometry"/>
                </mxCell>
                <mxCell id="112" style="edgeStyle=orthogonalEdgeStyle;html=1;" edge="1" parent="1" source="108" target="94">
                    <mxGeometry relative="1" as="geometry"/>
                </mxCell>
                <mxCell id="113" style="edgeStyle=orthogonalEdgeStyle;html=1;" edge="1" parent="1" source="108" target="107">
                    <mxGeometry relative="1" as="geometry">
                        <Array as="points">
                            <mxPoint x="240" y="1875"/>
                            <mxPoint x="240" y="2010"/>
                        </Array>
                    </mxGeometry>
                </mxCell>
                <mxCell id="108" value="APISIX Gateway" style="rounded=1;whiteSpace=wrap;html=1;" vertex="1" parent="1">
                    <mxGeometry x="80" y="1845" width="120" height="60" as="geometry"/>
                </mxCell>
                <mxCell id="111" style="edgeStyle=none;html=1;" edge="1" parent="1" source="109" target="110">
                    <mxGeometry relative="1" as="geometry"/>
                </mxCell>
                <mxCell id="121" value="Получение списка&lt;div&gt;сервисов&lt;/div&gt;" style="edgeLabel;html=1;align=center;verticalAlign=middle;resizable=0;points=[];" vertex="1" connectable="0" parent="111">
                    <mxGeometry x="-0.1556" y="3" relative="1" as="geometry">
                        <mxPoint as="offset"/>
                    </mxGeometry>
                </mxCell>
                <mxCell id="109" value="consul_kv" style="rounded=1;whiteSpace=wrap;html=1;" vertex="1" parent="1">
                    <mxGeometry x="90" y="1890.06" width="100" height="29.94" as="geometry"/>
                </mxCell>
                <mxCell id="110" value="Consul" style="rounded=1;whiteSpace=wrap;html=1;" vertex="1" parent="1">
                    <mxGeometry x="80" y="1980" width="120" height="60" as="geometry"/>
                </mxCell>
                <mxCell id="126" value="mongos_router" style="rounded=1;whiteSpace=wrap;html=1;" vertex="1" parent="1">
                    <mxGeometry x="450" y="1980" width="120" height="60" as="geometry"/>
                </mxCell>
                <mxCell id="134" style="edgeStyle=none;html=1;" edge="1" parent="1" source="133" target="108">
                    <mxGeometry relative="1" as="geometry"/>
                </mxCell>
                <mxCell id="133" value="User" style="shape=umlActor;verticalLabelPosition=bottom;verticalAlign=top;html=1;outlineConnect=0;" vertex="1" parent="1">
                    <mxGeometry y="1845" width="30" height="60" as="geometry"/>
                </mxCell>
                <mxCell id="136" style="edgeStyle=none;html=1;" edge="1" parent="1" source="135" target="69">
                    <mxGeometry relative="1" as="geometry"/>
                </mxCell>
                <mxCell id="135" value="User" style="shape=umlActor;verticalLabelPosition=bottom;verticalAlign=top;html=1;outlineConnect=0;" vertex="1" parent="1">
                    <mxGeometry x="210" y="1225" width="30" height="60" as="geometry"/>
                </mxCell>
                <mxCell id="140" style="edgeStyle=none;html=1;" edge="1" parent="1" source="137" target="51">
                    <mxGeometry relative="1" as="geometry"/>
                </mxCell>
                <mxCell id="137" value="User" style="shape=umlActor;verticalLabelPosition=bottom;verticalAlign=top;html=1;outlineConnect=0;" vertex="1" parent="1">
                    <mxGeometry x="210" y="719.94" width="30" height="60" as="geometry"/>
                </mxCell>
                <mxCell id="139" style="edgeStyle=none;html=1;" edge="1" parent="1" source="138" target="zA23MoTUsTF4_91t8viU-3">
                    <mxGeometry relative="1" as="geometry"/>
                </mxCell>
                <mxCell id="138" value="User" style="shape=umlActor;verticalLabelPosition=bottom;verticalAlign=top;html=1;outlineConnect=0;" vertex="1" parent="1">
                    <mxGeometry x="210" y="215" width="30" height="60" as="geometry"/>
                </mxCell>
                <mxCell id="142" style="edgeStyle=orthogonalEdgeStyle;html=1;fillColor=#e1d5e7;strokeColor=#9673a6;" edge="1" parent="1" source="143" target="159">
                    <mxGeometry relative="1" as="geometry">
                        <Array as="points">
                            <mxPoint x="715" y="2610"/>
                            <mxPoint x="960" y="2610"/>
                            <mxPoint x="960" y="2840"/>
                            <mxPoint x="510" y="2840"/>
                        </Array>
                    </mxGeometry>
                </mxCell>
                <mxCell id="143" value="shard1" style="rounded=1;whiteSpace=wrap;html=1;align=left;verticalAlign=top;spacingLeft=20;" vertex="1" parent="1">
                    <mxGeometry x="650" y="2400" width="290" height="190" as="geometry"/>
                </mxCell>
                <mxCell id="144" value="MongoDB&lt;div&gt;&lt;span style=&quot;color: rgb(0, 0, 0); text-align: left;&quot;&gt;(mongodb_shard1_1)&lt;/span&gt;&lt;/div&gt;" style="shape=cylinder3;whiteSpace=wrap;html=1;boundedLbl=1;backgroundOutline=1;size=15;" vertex="1" parent="1">
                    <mxGeometry x="662.5" y="2445" width="117.5" height="80" as="geometry"/>
                </mxCell>
                <mxCell id="145" style="edgeStyle=orthogonalEdgeStyle;html=1;" edge="1" parent="1" source="158" target="153">
                    <mxGeometry relative="1" as="geometry">
                        <Array as="points">
                            <mxPoint x="610" y="2510"/>
                            <mxPoint x="610" y="2710"/>
                        </Array>
                    </mxGeometry>
                </mxCell>
                <mxCell id="146" style="edgeStyle=none;html=1;" edge="1" parent="1" source="149" target="158">
                    <mxGeometry relative="1" as="geometry"/>
                </mxCell>
                <mxCell id="147" style="edgeStyle=orthogonalEdgeStyle;html=1;fillColor=#dae8fc;strokeColor=#6c8ebf;" edge="1" parent="1" source="149" target="164">
                    <mxGeometry relative="1" as="geometry">
                        <Array as="points">
                            <mxPoint x="340" y="2550"/>
                            <mxPoint x="430" y="2550"/>
                            <mxPoint x="430" y="2920"/>
                        </Array>
                    </mxGeometry>
                </mxCell>
                <mxCell id="148" style="edgeStyle=orthogonalEdgeStyle;html=1;fillColor=#fff2cc;strokeColor=#d6b656;" edge="1" parent="1" source="149" target="177">
                    <mxGeometry relative="1" as="geometry">
                        <Array as="points">
                            <mxPoint x="320" y="2550"/>
                            <mxPoint x="220" y="2550"/>
                            <mxPoint x="220" y="2690"/>
                            <mxPoint x="140" y="2690"/>
                        </Array>
                    </mxGeometry>
                </mxCell>
                <mxCell id="149" value="pymongo-api" style="rounded=1;whiteSpace=wrap;html=1;" vertex="1" parent="1">
                    <mxGeometry x="280" y="2465" width="120" height="60" as="geometry"/>
                </mxCell>
                <mxCell id="150" style="edgeStyle=orthogonalEdgeStyle;rounded=1;orthogonalLoop=1;jettySize=auto;html=1;curved=0;" edge="1" parent="1" source="158" target="143">
                    <mxGeometry relative="1" as="geometry">
                        <Array as="points">
                            <mxPoint x="610" y="2490"/>
                            <mxPoint x="610" y="2490"/>
                        </Array>
                    </mxGeometry>
                </mxCell>
                <mxCell id="151" style="edgeStyle=orthogonalEdgeStyle;html=1;fillColor=#e1d5e7;strokeColor=#9673a6;" edge="1" parent="1" source="153" target="159">
                    <mxGeometry relative="1" as="geometry">
                        <Array as="points">
                            <mxPoint x="510" y="2780"/>
                        </Array>
                    </mxGeometry>
                </mxCell>
                <mxCell id="152" value="Отправка метаданных" style="edgeLabel;html=1;align=center;verticalAlign=middle;resizable=0;points=[];" vertex="1" connectable="0" parent="151">
                    <mxGeometry x="0.5829" y="-3" relative="1" as="geometry">
                        <mxPoint x="-3" y="36" as="offset"/>
                    </mxGeometry>
                </mxCell>
                <mxCell id="153" value="shard2" style="rounded=1;whiteSpace=wrap;html=1;align=left;verticalAlign=top;spacingLeft=20;" vertex="1" parent="1">
                    <mxGeometry x="650" y="2630" width="290" height="190" as="geometry"/>
                </mxCell>
                <mxCell id="154" value="MongoDB&lt;div&gt;&lt;span style=&quot;color: rgb(0, 0, 0); text-align: left;&quot;&gt;(mongodb_shard2-1)&lt;/span&gt;&lt;/div&gt;" style="shape=cylinder3;whiteSpace=wrap;html=1;boundedLbl=1;backgroundOutline=1;size=15;" vertex="1" parent="1">
                    <mxGeometry x="662.5" y="2685" width="117.5" height="80" as="geometry"/>
                </mxCell>
                <mxCell id="155" style="edgeStyle=none;html=1;fillColor=#e1d5e7;strokeColor=#9673a6;" edge="1" parent="1" source="178" target="159">
                    <mxGeometry relative="1" as="geometry"/>
                </mxCell>
                <mxCell id="156" style="edgeStyle=orthogonalEdgeStyle;html=1;fillColor=#e1d5e7;strokeColor=#9673a6;" edge="1" parent="1" source="158" target="159">
                    <mxGeometry relative="1" as="geometry">
                        <Array as="points">
                            <mxPoint x="510" y="2580"/>
                            <mxPoint x="590" y="2580"/>
                            <mxPoint x="590" y="2680"/>
                            <mxPoint x="510" y="2680"/>
                        </Array>
                    </mxGeometry>
                </mxCell>
                <mxCell id="157" value="&lt;span style=&quot;color: rgb(0, 0, 0);&quot;&gt;Получение данных&lt;/span&gt;&lt;div&gt;о кластере&lt;/div&gt;" style="edgeLabel;html=1;align=center;verticalAlign=middle;resizable=0;points=[];" vertex="1" connectable="0" parent="156">
                    <mxGeometry x="0.5949" relative="1" as="geometry">
                        <mxPoint x="-34" y="-120" as="offset"/>
                    </mxGeometry>
                </mxCell>
                <mxCell id="158" value="mongos_router" style="rounded=1;whiteSpace=wrap;html=1;" vertex="1" parent="1">
                    <mxGeometry x="450" y="2465" width="120" height="60" as="geometry"/>
                </mxCell>
                <mxCell id="159" value="mongo_configsrv" style="rounded=1;whiteSpace=wrap;html=1;" vertex="1" parent="1">
                    <mxGeometry x="450" y="2705" width="120" height="60" as="geometry"/>
                </mxCell>
                <mxCell id="160" value="MongoDB&lt;div&gt;&lt;span style=&quot;color: rgb(0, 0, 0); text-align: left;&quot;&gt;(mongodb_shard1_2)&lt;/span&gt;&lt;/div&gt;" style="shape=cylinder3;whiteSpace=wrap;html=1;boundedLbl=1;backgroundOutline=1;size=15;" vertex="1" parent="1">
                    <mxGeometry x="800" y="2410.06" width="120" height="80" as="geometry"/>
                </mxCell>
                <mxCell id="161" value="MongoDB&lt;div&gt;&lt;span style=&quot;color: rgb(0, 0, 0); text-align: left;&quot;&gt;(mongodb_shard1_3)&lt;/span&gt;&lt;/div&gt;" style="shape=cylinder3;whiteSpace=wrap;html=1;boundedLbl=1;backgroundOutline=1;size=15;" vertex="1" parent="1">
                    <mxGeometry x="800" y="2500.06" width="120" height="80" as="geometry"/>
                </mxCell>
                <mxCell id="162" value="MongoDB&lt;div&gt;&lt;span style=&quot;color: rgb(0, 0, 0); text-align: left;&quot;&gt;(mongodb_shard2_2)&lt;/span&gt;&lt;/div&gt;" style="shape=cylinder3;whiteSpace=wrap;html=1;boundedLbl=1;backgroundOutline=1;size=15;" vertex="1" parent="1">
                    <mxGeometry x="800" y="2640.06" width="117.5" height="80" as="geometry"/>
                </mxCell>
                <mxCell id="163" value="MongoDB&lt;div&gt;&lt;span style=&quot;color: rgb(0, 0, 0); text-align: left;&quot;&gt;(mongodb_shard2_3)&lt;/span&gt;&lt;/div&gt;" style="shape=cylinder3;whiteSpace=wrap;html=1;boundedLbl=1;backgroundOutline=1;size=15;" vertex="1" parent="1">
                    <mxGeometry x="800" y="2735.06" width="117.5" height="80" as="geometry"/>
                </mxCell>
                <mxCell id="164" value="Redis&lt;div&gt;&lt;span style=&quot;color: rgb(0, 0, 0); text-align: left;&quot;&gt;(redis_cache)&lt;/span&gt;&lt;/div&gt;" style="shape=cylinder3;whiteSpace=wrap;html=1;boundedLbl=1;backgroundOutline=1;size=15;" vertex="1" parent="1">
                    <mxGeometry x="520" y="2880" width="117.5" height="80" as="geometry"/>
                </mxCell>
                <mxCell id="165" style="edgeStyle=orthogonalEdgeStyle;html=1;fillColor=#dae8fc;strokeColor=#6c8ebf;" edge="1" parent="1" source="170" target="164">
                    <mxGeometry relative="1" as="geometry">
                        <Array as="points">
                            <mxPoint x="340" y="2690"/>
                            <mxPoint x="430" y="2690"/>
                            <mxPoint x="430" y="2920"/>
                        </Array>
                    </mxGeometry>
                </mxCell>
                <mxCell id="166" value="Получение данных&lt;div&gt;из кэша&lt;/div&gt;" style="edgeLabel;html=1;align=center;verticalAlign=middle;resizable=0;points=[];" vertex="1" connectable="0" parent="165">
                    <mxGeometry x="-0.0364" y="-2" relative="1" as="geometry">
                        <mxPoint as="offset"/>
                    </mxGeometry>
                </mxCell>
                <mxCell id="167" style="edgeStyle=orthogonalEdgeStyle;html=1;fillColor=#fff2cc;strokeColor=#d6b656;" edge="1" parent="1" source="170" target="177">
                    <mxGeometry relative="1" as="geometry">
                        <Array as="points">
                            <mxPoint x="320" y="2690"/>
                            <mxPoint x="140" y="2690"/>
                        </Array>
                    </mxGeometry>
                </mxCell>
                <mxCell id="168" value="Регистрация&lt;div&gt;в consul&lt;/div&gt;" style="edgeLabel;html=1;align=center;verticalAlign=middle;resizable=0;points=[];" vertex="1" connectable="0" parent="167">
                    <mxGeometry x="0.3263" relative="1" as="geometry">
                        <mxPoint x="9" y="20" as="offset"/>
                    </mxGeometry>
                </mxCell>
                <mxCell id="169" style="edgeStyle=none;html=1;" edge="1" parent="1" source="170" target="178">
                    <mxGeometry relative="1" as="geometry"/>
                </mxCell>
                <mxCell id="170" value="pymongo-api" style="rounded=1;whiteSpace=wrap;html=1;" vertex="1" parent="1">
                    <mxGeometry x="280" y="2600" width="120" height="60" as="geometry"/>
                </mxCell>
                <mxCell id="171" style="edgeStyle=orthogonalEdgeStyle;html=1;" edge="1" parent="1" source="173" target="149">
                    <mxGeometry relative="1" as="geometry"/>
                </mxCell>
                <mxCell id="172" style="edgeStyle=orthogonalEdgeStyle;html=1;" edge="1" parent="1" source="173" target="170">
                    <mxGeometry relative="1" as="geometry">
                        <Array as="points">
                            <mxPoint x="240" y="2495"/>
                            <mxPoint x="240" y="2630"/>
                        </Array>
                    </mxGeometry>
                </mxCell>
                <mxCell id="173" value="APISIX Gateway" style="rounded=1;whiteSpace=wrap;html=1;" vertex="1" parent="1">
                    <mxGeometry x="80" y="2465" width="120" height="60" as="geometry"/>
                </mxCell>
                <mxCell id="174" style="edgeStyle=none;html=1;" edge="1" parent="1" source="176" target="177">
                    <mxGeometry relative="1" as="geometry"/>
                </mxCell>
                <mxCell id="175" value="Получение списка&lt;div&gt;сервисов&lt;/div&gt;" style="edgeLabel;html=1;align=center;verticalAlign=middle;resizable=0;points=[];" vertex="1" connectable="0" parent="174">
                    <mxGeometry x="-0.1556" y="3" relative="1" as="geometry">
                        <mxPoint as="offset"/>
                    </mxGeometry>
                </mxCell>
                <mxCell id="176" value="consul_kv" style="rounded=1;whiteSpace=wrap;html=1;" vertex="1" parent="1">
                    <mxGeometry x="90" y="2510.06" width="100" height="29.94" as="geometry"/>
                </mxCell>
                <mxCell id="177" value="Consul" style="rounded=1;whiteSpace=wrap;html=1;" vertex="1" parent="1">
                    <mxGeometry x="80" y="2600" width="120" height="60" as="geometry"/>
                </mxCell>
                <mxCell id="178" value="mongos_router" style="rounded=1;whiteSpace=wrap;html=1;" vertex="1" parent="1">
                    <mxGeometry x="450" y="2600" width="120" height="60" as="geometry"/>
                </mxCell>
                <mxCell id="188" style="edgeStyle=none;html=1;" edge="1" parent="1" source="180" target="186">
                    <mxGeometry relative="1" as="geometry"/>
                </mxCell>
                <mxCell id="202" style="edgeStyle=orthogonalEdgeStyle;html=1;" edge="1" parent="1" source="180" target="182">
                    <mxGeometry relative="1" as="geometry">
                        <Array as="points">
                            <mxPoint x="-150" y="2495"/>
                            <mxPoint x="-150" y="3080"/>
                        </Array>
                    </mxGeometry>
                </mxCell>
                <mxCell id="203" style="edgeStyle=orthogonalEdgeStyle;html=1;" edge="1" parent="1" source="180" target="192">
                    <mxGeometry relative="1" as="geometry">
                        <Array as="points">
                            <mxPoint x="-150" y="2495"/>
                            <mxPoint x="-150" y="3160"/>
                            <mxPoint x="190" y="3160"/>
                            <mxPoint x="190" y="3080"/>
                        </Array>
                    </mxGeometry>
                </mxCell>
                <mxCell id="204" style="edgeStyle=orthogonalEdgeStyle;html=1;" edge="1" parent="1" source="180" target="195">
                    <mxGeometry relative="1" as="geometry">
                        <Array as="points">
                            <mxPoint x="-150" y="2495"/>
                            <mxPoint x="-150" y="3160"/>
                            <mxPoint x="660" y="3160"/>
                            <mxPoint x="660" y="3080"/>
                        </Array>
                    </mxGeometry>
                </mxCell>
                <mxCell id="180" value="User" style="shape=umlActor;verticalLabelPosition=bottom;verticalAlign=top;html=1;outlineConnect=0;" vertex="1" parent="1">
                    <mxGeometry x="-220" y="2465" width="30" height="60" as="geometry"/>
                </mxCell>
                <mxCell id="182" value="Region 1 cloud infrastructure" style="rounded=0;whiteSpace=wrap;html=1;align=left;verticalAlign=top;spacingLeft=20;dashed=1;" vertex="1" parent="1">
                    <mxGeometry x="-120" y="3020" width="290" height="120" as="geometry"/>
                </mxCell>
                <mxCell id="184" value="CDN" style="rounded=1;whiteSpace=wrap;html=1;" vertex="1" parent="1">
                    <mxGeometry x="-100" y="3060" width="120" height="60" as="geometry"/>
                </mxCell>
                <mxCell id="185" value="Cache" style="rounded=1;whiteSpace=wrap;html=1;" vertex="1" parent="1">
                    <mxGeometry x="30" y="3060" width="120" height="60" as="geometry"/>
                </mxCell>
                <mxCell id="187" style="edgeStyle=none;html=1;" edge="1" parent="1" source="186" target="173">
                    <mxGeometry relative="1" as="geometry"/>
                </mxCell>
                <mxCell id="198" style="edgeStyle=orthogonalEdgeStyle;html=1;fillColor=#d5e8d4;strokeColor=#82b366;" edge="1" parent="1" source="186">
                    <mxGeometry relative="1" as="geometry">
                        <mxPoint x="-30" y="3020" as="targetPoint"/>
                        <Array as="points">
                            <mxPoint x="-30" y="2860"/>
                            <mxPoint x="-30" y="2860"/>
                        </Array>
                    </mxGeometry>
                </mxCell>
                <mxCell id="199" style="edgeStyle=orthogonalEdgeStyle;html=1;fillColor=#d5e8d4;strokeColor=#82b366;" edge="1" parent="1" source="186" target="192">
                    <mxGeometry relative="1" as="geometry">
                        <Array as="points">
                            <mxPoint x="-30" y="2990"/>
                            <mxPoint x="355" y="2990"/>
                        </Array>
                    </mxGeometry>
                </mxCell>
                <mxCell id="200" style="edgeStyle=orthogonalEdgeStyle;html=1;fillColor=#d5e8d4;strokeColor=#82b366;" edge="1" parent="1" source="186" target="195">
                    <mxGeometry relative="1" as="geometry">
                        <Array as="points">
                            <mxPoint x="-30" y="2990"/>
                            <mxPoint x="825" y="2990"/>
                        </Array>
                    </mxGeometry>
                </mxCell>
                <mxCell id="201" value="Синхронизация&lt;div&gt;статического контента с CDN&lt;/div&gt;" style="edgeLabel;html=1;align=center;verticalAlign=middle;resizable=0;points=[];" vertex="1" connectable="0" parent="200">
                    <mxGeometry x="-0.5541" y="3" relative="1" as="geometry">
                        <mxPoint as="offset"/>
                    </mxGeometry>
                </mxCell>
                <mxCell id="186" value="Frontend/Nginx" style="rounded=1;whiteSpace=wrap;html=1;" vertex="1" parent="1">
                    <mxGeometry x="-90" y="2465" width="120" height="60" as="geometry"/>
                </mxCell>
                <mxCell id="192" value="&lt;span style=&quot;color: rgb(0, 0, 0);&quot;&gt;Region 2 cloud infrastructure&lt;/span&gt;" style="rounded=0;whiteSpace=wrap;html=1;align=left;verticalAlign=top;spacingLeft=20;dashed=1;" vertex="1" parent="1">
                    <mxGeometry x="210" y="3020" width="290" height="120" as="geometry"/>
                </mxCell>
                <mxCell id="193" value="CDN" style="rounded=1;whiteSpace=wrap;html=1;" vertex="1" parent="1">
                    <mxGeometry x="230" y="3060" width="120" height="60" as="geometry"/>
                </mxCell>
                <mxCell id="194" value="Cache" style="rounded=1;whiteSpace=wrap;html=1;" vertex="1" parent="1">
                    <mxGeometry x="360" y="3060" width="120" height="60" as="geometry"/>
                </mxCell>
                <mxCell id="195" value="&lt;span style=&quot;color: rgb(0, 0, 0);&quot;&gt;Region N cloud infrastructure&lt;/span&gt;" style="rounded=0;whiteSpace=wrap;html=1;align=left;verticalAlign=top;spacingLeft=20;dashed=1;" vertex="1" parent="1">
                    <mxGeometry x="680" y="3020" width="290" height="120" as="geometry"/>
                </mxCell>
                <mxCell id="196" value="CDN" style="rounded=1;whiteSpace=wrap;html=1;" vertex="1" parent="1">
                    <mxGeometry x="700" y="3060" width="120" height="60" as="geometry"/>
                </mxCell>
                <mxCell id="197" value="Cache" style="rounded=1;whiteSpace=wrap;html=1;" vertex="1" parent="1">
                    <mxGeometry x="830" y="3060" width="120" height="60" as="geometry"/>
                </mxCell>
            </root>
        </mxGraphModel>
    </diagram>
</mxfile>
